<svg xmlns="http://www.w3.org/2000/svg" xmlns:xlink="http://www.w3.org/1999/xlink" width="55" height="40" viewBox="0 0 55 40">
  <defs>
    <clipPath id="clip-icon-bw-dashboard">
      <rect width="55" height="40"/>
    </clipPath>
  </defs>
  <g id="icon-bw-dashboard" clip-path="url(#clip-icon-bw-dashboard)">
    <path id="Path_3455" data-name="Path 3455" d="M-2661.8-6735.536h-2.242a2.531,2.531,0,0,0-2.022,2.452c.025,2.036,0,12.407,0,12.407a1.876,1.876,0,0,0,1.822,2.179c2.074.086,11.181,0,11.181,0a1.935,1.935,0,0,0,2.188-2.179c-.043-2.447,0-11.991,0-11.991s.521-2.774-1.767-2.868-6.345,0-6.345,0" transform="translate(2677.075 6739.578)" fill="none" stroke="#191919" stroke-linecap="round" stroke-width="1.1"/>
    <path id="Path_3458" data-name="Path 3458" d="M-2657.553-6735.536s-4.416-.094-6.7,0-1.767,2.868-1.767,2.868.043,9.544,0,11.991a1.935,1.935,0,0,0,2.189,2.179s9.106.086,11.18,0a1.876,1.876,0,0,0,1.822-2.179s-.025-10.372,0-12.407a2.531,2.531,0,0,0-2.022-2.452s-1.933,0-1.926,0" transform="translate(2695.374 6755.04)" fill="none" stroke="#191919" stroke-linecap="round" stroke-width="1.1"/>
    <path id="Path_3456" data-name="Path 3456" d="M-2605.279-6724.678s4.323.025,6.349-.033,1.9-2.467,1.9-2.467-.046-3.847,0-6.956-2.275-2.934-2.275-2.934-8.477-.052-10.742,0-2.286,2.483-2.286,2.483v7.968a1.846,1.846,0,0,0,1.872,1.905c1.911.048,1.7.033,2.209.033" transform="translate(2641.582 6741.091)" fill="#d1d4db" stroke="#191919" stroke-linecap="round" stroke-width="1.1"/>
    <path id="Path_3457" data-name="Path 3457" d="M-2603.852-6724.678s-4.559.025-6.586-.033-1.9-2.467-1.9-2.467.046-3.847,0-6.956,2.275-2.934,2.275-2.934,8.477-.052,10.742,0,2.286,2.483,2.286,2.483v7.968a1.846,1.846,0,0,1-1.873,1.905c-1.91.048-1.7.033-2.208.033" transform="translate(2623.336 6761.228)" fill="#d1d4db" stroke="#191919" stroke-linecap="round" stroke-width="1.1"/>
  </g>
</svg>
