<svg xmlns="http://www.w3.org/2000/svg" xmlns:xlink="http://www.w3.org/1999/xlink" width="55" height="40" viewBox="0 0 55 40">
  <defs>
    <clipPath id="clip-icon-bw-groups">
      <rect width="55" height="40"/>
    </clipPath>
  </defs>
  <g id="icon-bw-groups" clip-path="url(#clip-icon-bw-groups)">
    <g id="Group_2083" data-name="Group 2083" transform="translate(-38.897 -50.118)">
      <path id="Path_3516" data-name="Path 3516" d="M-3891.511-6899.659h2.85s.2,1.223,1.169,1.422.771.139.771.139-1.317.6-1.341,1.7,0,5.076,0,5.076h-2.991l-.849-7.3Z" transform="translate(3946.461 6969.219)" fill="none"/>
      <path id="Path_3517" data-name="Path 3517" d="M-3887.1-6899.659h-2.85s-.2,1.223-1.169,1.422-.771.139-.771.139,1.317.6,1.341,1.7,0,5.076,0,5.076h2.991l.849-7.3Z" transform="translate(3965.72 6969.219)" fill="none"/>
      <path id="Path_3443" data-name="Path 3443" d="M-4925.269-9830.82a1.618,1.618,0,0,1-1.589,1.432c-2.653.163-3.355,1.813-3.355,1.813v5.078h12.94v-5.078a3.637,3.637,0,0,0-3.2-1.8c-1.91-.162-1.622-1.443-1.622-1.443" transform="translate(4990.33 9903.276)" fill="#d1d4db" stroke="#191919" stroke-linecap="round" stroke-linejoin="round" stroke-width="1.1"/>
      <path id="Path_3444" data-name="Path 3444" d="M-4917.888-9845.088a3.841,3.841,0,0,1-3.675-3.738,3.585,3.585,0,0,1,3.675-3.717,3.454,3.454,0,0,1,3.322,3.717C-4914.592-9847.092-4916.138-9845.088-4917.888-9845.088Z" transform="translate(4984.747 9916.65)" fill="#d1d4db" stroke="#191919" stroke-width="1.1"/>
      <g id="Group_2000" data-name="Group 2000" transform="translate(50 61.297)">
        <path id="Path_3450" data-name="Path 3450" d="M-4920.748-9830.82a1.618,1.618,0,0,0,1.589,1.432" transform="translate(4928.744 9839.17)" fill="#fff" stroke="#191919" stroke-linecap="round" stroke-linejoin="round" stroke-width="1.1"/>
        <path id="Path_3448" data-name="Path 3448" d="M-4908.35-9822.5h-8.039v-5.078a3.636,3.636,0,0,1,3.2-1.8c1.91-.162,1.622-1.443,1.622-1.443" transform="translate(4916.389 9839.17)" fill="none" stroke="#191919" stroke-linecap="round" stroke-linejoin="round" stroke-width="1.1"/>
        <path id="Path_3449" data-name="Path 3449" d="M-4917.888-9845.088a3.841,3.841,0,0,1-3.675-3.738,3.585,3.585,0,0,1,3.675-3.717,3.454,3.454,0,0,1,3.322,3.717C-4914.592-9847.092-4916.138-9845.088-4917.888-9845.088Z" transform="translate(4924.466 9852.543)" fill="none" stroke="#191919" stroke-width="1.1"/>
        <path id="Path_3451" data-name="Path 3451" d="M-5044.415-10043.728v-3.507" transform="translate(5047.015 10060.4)" fill="#fff" stroke="#191919" stroke-linecap="round" stroke-width="1.1"/>
      </g>
      <path id="Path_3452" data-name="Path 3452" d="M-5044.415-10043.728v-3.507" transform="translate(5107.296 10124.507)" fill="none" stroke="#191919" stroke-linecap="round" stroke-width="1.1"/>
      <path id="Path_3453" data-name="Path 3453" d="M-5044.415-10043.728v-3.507" transform="translate(5114.741 10124.507)" fill="none" stroke="#191919" stroke-linecap="round" stroke-width="1.1"/>
      <g id="Group_1999" data-name="Group 1999" transform="translate(73.818 61.297)">
        <path id="Path_3447" data-name="Path 3447" d="M-4919.159-9830.82a1.618,1.618,0,0,1-1.589,1.432" transform="translate(4921.038 9839.17)" fill="none" stroke="#191919" stroke-linecap="round" stroke-linejoin="round" stroke-width="1.1"/>
        <path id="Path_3446" data-name="Path 3446" d="M-4916.389-9822.5h8.039v-5.078a3.636,3.636,0,0,0-3.2-1.8c-1.91-.162-1.622-1.443-1.622-1.443" transform="translate(4918.224 9839.17)" fill="none" stroke="#191919" stroke-linecap="round" stroke-linejoin="round" stroke-width="1.1"/>
        <path id="Path_3445" data-name="Path 3445" d="M-4917.888-9845.088a3.841,3.841,0,0,1-3.675-3.738,3.585,3.585,0,0,1,3.675-3.717,3.454,3.454,0,0,1,3.322,3.717C-4914.592-9847.092-4916.138-9845.088-4917.888-9845.088Z" transform="translate(4921.564 9852.543)" fill="none" stroke="#191919" stroke-width="1.1"/>
        <path id="Path_3454" data-name="Path 3454" d="M-5044.415-10043.728v-3.507" transform="translate(5051.913 10060.4)" fill="none" stroke="#191919" stroke-linecap="round" stroke-width="1.1"/>
      </g>
      <g id="Group_2022" data-name="Group 2022" transform="translate(53.663 54)">
        <path id="Path_3506" data-name="Path 3506" d="M-3826.676-6894.814a17.819,17.819,0,0,0-2.377-.328c-.419-.03-.894-.047-1.383-.047a16.665,16.665,0,0,0-10.173,3.242,16.879,16.879,0,0,0-3,2.872" transform="translate(3843.608 6895.189)" fill="none" stroke="#191919" stroke-linecap="round" stroke-linejoin="round" stroke-width="1.1"/>
        <path id="Path_3507" data-name="Path 3507" d="M-3899.38-6890.1a17.121,17.121,0,0,0-2.763-2.707,15.647,15.647,0,0,0-4.356-2.385" transform="translate(3925.66 6896.185)" fill="none" stroke="#191919" stroke-linecap="round" stroke-linejoin="round" stroke-width="1.1"/>
      </g>
      <g id="Group_2024" data-name="Group 2024" transform="translate(53.663 79.802)">
        <path id="Path_3506-2" data-name="Path 3506" d="M-3843.608-6889.451a17.907,17.907,0,0,0,2.377.329c.419.03.894.047,1.383.047a16.662,16.662,0,0,0,10.173-3.242,16.845,16.845,0,0,0,3-2.872" transform="translate(3852.956 6895.189)" fill="none" stroke="#191919" stroke-linecap="round" stroke-linejoin="round" stroke-width="1.1"/>
        <path id="Path_3507-2" data-name="Path 3507" d="M-3906.5-6895.19a17.14,17.14,0,0,0,2.763,2.706,15.647,15.647,0,0,0,4.356,2.385" transform="translate(3906.499 6895.217)" fill="none" stroke="#191919" stroke-linecap="round" stroke-linejoin="round" stroke-width="1.1"/>
      </g>
      <path id="Path_3515" data-name="Path 3515" d="M-3890.094-6899.659" transform="translate(3945.044 6969.293)" fill="none" stroke="#707070" stroke-width="1.1"/>
    </g>
  </g>
</svg>
