<svg xmlns="http://www.w3.org/2000/svg" xmlns:xlink="http://www.w3.org/1999/xlink" width="55" height="40" viewBox="0 0 55 40">
  <defs>
    <clipPath id="clip-icon-bw-businessdirectory">
      <rect width="55" height="40"/>
    </clipPath>
  </defs>
  <g id="icon-bw-businessdirectory" clip-path="url(#clip-icon-bw-businessdirectory)">
    <path id="Subtraction_16" data-name="Subtraction 16" d="M4516.5,7014.063H4508v-19.806h18.734l3.252-2.257h11.769v5.758h-3.3l-3.184,2.385H4516.5v13.919Z" transform="translate(-4502 -6986)" fill="#d1d4db" stroke="#191919" stroke-linecap="round" stroke-linejoin="round" stroke-width="1.1"/>
    <path id="Subtraction_15" data-name="Subtraction 15" d="M4511.924,7014.064H4508v-19.809h18.734l3.253-2.256h11.769v2.856h-7.882l-3.183,2.385h-18.767v16.822Z" transform="translate(-4497.422 -6983.098)" fill="#d1d4db" stroke="#191919" stroke-linecap="round" stroke-linejoin="round" stroke-width="1.1"/>
    <g id="Group_2098" data-name="Group 2098">
      <path id="Path_3499" data-name="Path 3499" d="M-2925.1-6945.433h-11.306v-19.807h18.767l3.184-2.384h11.848v22.191h-19.334" transform="translate(2950.909 6979.382)" fill="none" stroke="#191919" stroke-linecap="round" stroke-linejoin="round" stroke-width="1.1"/>
      <g id="Rectangle_994" data-name="Rectangle 994" transform="translate(35.152 19.4)" fill="#d2d4da" stroke="#191919" stroke-linecap="round" stroke-linejoin="round" stroke-width="1.1">
        <rect width="8.925" height="8.4" rx="2" stroke="none"/>
        <rect x="0.55" y="0.55" width="7.825" height="7.3" rx="1.45" fill="none"/>
      </g>
      <g id="Group_2015" data-name="Group 2015" transform="translate(18.645 21.678)">
        <line id="Line_7" data-name="Line 7" x2="12.427" fill="none" stroke="#191919" stroke-linecap="round" stroke-width="1.1"/>
        <line id="Line_8" data-name="Line 8" x2="12.427" transform="translate(0 4.098)" fill="none" stroke="#191919" stroke-linecap="round" stroke-width="1.1"/>
      </g>
    </g>
  </g>
</svg>
