<svg xmlns="http://www.w3.org/2000/svg" xmlns:xlink="http://www.w3.org/1999/xlink" width="55" height="40" viewBox="0 0 55 40">
  <defs>
    <clipPath id="clip-icon-bw-members">
      <rect width="55" height="40"/>
    </clipPath>
  </defs>
  <g id="icon-bw-members" clip-path="url(#clip-icon-bw-members)">
    <g id="Group_2080" data-name="Group 2080" transform="translate(-70.899 -84.231)">
      <path id="Path_3446" data-name="Path 3446" d="M-4921.994-9817.414h13.179v-8.18a5.86,5.86,0,0,0-5.156-2.9c-3.077-.262-2.612-2.323-2.612-2.323a8.007,8.007,0,0,1-2.626.547,7.342,7.342,0,0,1-2.554-.547s-2.094,2.211-2.884,2.323a39.2,39.2,0,0,1,2.44,3.544,6.466,6.466,0,0,1,.31,2.395" transform="translate(5025.968 9934.092)" fill="#d1d4db"/>
      <path id="Path_3485" data-name="Path 3485" d="M-5044.415-10041.587v-5.647" transform="translate(5157.741 10158.263)" fill="#d1d4db"/>
      <path id="Path_3445" data-name="Path 3445" d="M-4915.643-9840.537a6.185,6.185,0,0,1-5.92-6.021c.1-3.363,2.331-6,5.92-5.986s5.394,3.193,5.352,5.986S-4912.825-9840.537-4915.643-9840.537Z" transform="translate(5022.814 9942.367)" fill="#d1d4db" stroke="#191919" stroke-width="1.1"/>
      <g id="Group_2008" data-name="Group 2008" transform="translate(101.716 103.271)">
        <g id="Group_2006" data-name="Group 2006">
          <path id="Path_3447" data-name="Path 3447" d="M-4918.189-9830.82a2.607,2.607,0,0,1-2.56,2.306" transform="translate(4920.749 9830.82)" fill="none" stroke="#191919" stroke-linecap="round" stroke-linejoin="round" stroke-width="1.1"/>
          <path id="Path_3446-2" data-name="Path 3446" d="M-4916.389-9817.414h12.948v-8.18a5.858,5.858,0,0,0-5.155-2.9c-3.077-.262-2.612-2.323-2.612-2.323" transform="translate(4918.878 9830.82)" fill="none" stroke="#191919" stroke-linecap="round" stroke-linejoin="round" stroke-width="1.1"/>
        </g>
        <path id="Path_3454" data-name="Path 3454" d="M-5044.415-10041.587v-5.647" transform="translate(5056.026 10054.992)" fill="none" stroke="#191919" stroke-linecap="round" stroke-width="1.1"/>
      </g>
      <path id="Path_3505" data-name="Path 3505" d="M-4921.63-9830.82a2.81,2.81,0,0,1-2.759,2.484c-4.606.284-5.824,3.148-5.824,3.148v8.815h22.461v-8.815s-1.341-2.906-5.557-3.128c-3.315-.281-2.815-2.5-2.815-2.5" transform="translate(5010.074 9934.739)" fill="none" stroke="#191919" stroke-linecap="round" stroke-linejoin="round" stroke-width="1.1"/>
      <path id="Path_3504" data-name="Path 3504" d="M-4915.183-9839.6a6.667,6.667,0,0,1-6.38-6.489c.1-3.625,2.512-6.466,6.38-6.452s5.813,3.44,5.767,6.452S-4912.146-9839.6-4915.183-9839.6Z" transform="translate(5006.748 9941.97)" fill="none" stroke="#191919" stroke-width="1.1"/>
    </g>
  </g>
</svg>
