<svg xmlns="http://www.w3.org/2000/svg" width="122.168" height="60.082" viewBox="0 0 122.168 60.082">
  <g id="vaave-logo" transform="translate(-631 -3849.53)">
    <g id="Group_560" data-name="Group 560" transform="translate(631 3872.023)">
      <g id="Group_343" data-name="Group 343" transform="translate(0 0)">
        <g id="Group_336" data-name="Group 336" transform="translate(6.957 30.187)">
          <path id="Path_1268" data-name="Path 1268" d="M675.68,3657.037v.642h-3.192v1.82h2.976v.641h-2.976v1.981H675.7v.642h-3.977v-5.726Z" transform="translate(-671.727 -3657.037)" fill="#191919"/>
          <path id="Path_1269" data-name="Path 1269" d="M676.926,3658.544v.657h.016a1.436,1.436,0,0,1,1.347-.754,1.81,1.81,0,0,1,.682.112,1.1,1.1,0,0,1,.678.79,2.589,2.589,0,0,1,.068.614v2.727h-.682v-2.807a.822.822,0,0,0-.224-.609.833.833,0,0,0-.618-.225,1.417,1.417,0,0,0-.542.1,1.016,1.016,0,0,0-.38.273,1.183,1.183,0,0,0-.229.412,1.7,1.7,0,0,0-.076.519v2.341h-.682v-4.146Z" transform="translate(-671.497 -3656.964)" fill="#191919"/>
          <path id="Path_1270" data-name="Path 1270" d="M681.147,3658.546v.874h.017a1.854,1.854,0,0,1,.608-.746,1.538,1.538,0,0,1,.915-.225v.722a1.949,1.949,0,0,0-.7.112,1.11,1.11,0,0,0-.465.33,1.378,1.378,0,0,0-.258.524,2.9,2.9,0,0,0-.079.711v1.845H680.5v-4.146Z" transform="translate(-671.284 -3656.965)" fill="#191919"/>
          <path id="Path_1271" data-name="Path 1271" d="M683.108,3657.871v-.834h.682v.834Zm.682.746v4.146h-.682v-4.146Z" transform="translate(-671.152 -3657.037)" fill="#191919"/>
          <path id="Path_1272" data-name="Path 1272" d="M687.254,3659.266a1.042,1.042,0,0,0-.69-.216,1.26,1.26,0,0,0-.617.136,1.105,1.105,0,0,0-.4.36,1.535,1.535,0,0,0-.212.518,2.8,2.8,0,0,0-.064.6,2.273,2.273,0,0,0,.068.562,1.513,1.513,0,0,0,.212.485,1.087,1.087,0,0,0,.377.342,1.136,1.136,0,0,0,.554.128,1.119,1.119,0,0,0,.79-.265,1.2,1.2,0,0,0,.349-.746h.7a1.912,1.912,0,0,1-.574,1.187,1.8,1.8,0,0,1-1.255.417,2.172,2.172,0,0,1-.837-.152,1.627,1.627,0,0,1-.61-.434,1.872,1.872,0,0,1-.369-.67,2.821,2.821,0,0,1-.124-.854,3.061,3.061,0,0,1,.12-.87,2.026,2.026,0,0,1,.366-.706,1.707,1.707,0,0,1,.613-.473,2,2,0,0,1,.857-.173,2.48,2.48,0,0,1,.662.085,1.612,1.612,0,0,1,.546.26,1.434,1.434,0,0,1,.389.444,1.648,1.648,0,0,1,.192.638h-.706A1.044,1.044,0,0,0,687.254,3659.266Z" transform="translate(-671.079 -3656.964)" fill="#191919"/>
          <path id="Path_1273" data-name="Path 1273" d="M689.547,3657.037v2.189h.016a.909.909,0,0,1,.225-.325,1.255,1.255,0,0,1,.325-.217,1.7,1.7,0,0,1,.377-.125,1.919,1.919,0,0,1,.38-.04,1.8,1.8,0,0,1,.682.112,1.139,1.139,0,0,1,.441.313,1.161,1.161,0,0,1,.236.477,2.583,2.583,0,0,1,.068.614v2.727h-.682v-2.806a.818.818,0,0,0-.225-.609.83.83,0,0,0-.617-.225,1.422,1.422,0,0,0-.542.1,1.023,1.023,0,0,0-.38.273,1.154,1.154,0,0,0-.229.412,1.7,1.7,0,0,0-.076.518v2.341h-.682v-5.726Z" transform="translate(-670.862 -3657.037)" fill="#191919"/>
          <path id="Path_1274" data-name="Path 1274" d="M693.147,3657.871v-.834h.681v.834Zm.681.746v4.146h-.681v-4.146Z" transform="translate(-670.646 -3657.037)" fill="#191919"/>
          <path id="Path_1275" data-name="Path 1275" d="M695.446,3658.544v.657h.016a1.437,1.437,0,0,1,1.347-.754,1.811,1.811,0,0,1,.682.112,1.1,1.1,0,0,1,.678.79,2.589,2.589,0,0,1,.068.614v2.727h-.682v-2.807a.821.821,0,0,0-.224-.609.833.833,0,0,0-.618-.225,1.413,1.413,0,0,0-.542.1,1.016,1.016,0,0,0-.38.273,1.181,1.181,0,0,0-.229.412,1.7,1.7,0,0,0-.076.519v2.341H694.8v-4.146Z" transform="translate(-670.562 -3656.964)" fill="#191919"/>
          <path id="Path_1276" data-name="Path 1276" d="M702.171,3663.86a1.9,1.9,0,0,1-1.46.505,2.832,2.832,0,0,1-.589-.063,1.833,1.833,0,0,1-.545-.208,1.286,1.286,0,0,1-.406-.377,1.081,1.081,0,0,1-.177-.57h.682a.5.5,0,0,0,.117.313.833.833,0,0,0,.265.208,1.3,1.3,0,0,0,.34.117,1.81,1.81,0,0,0,.353.036,1.256,1.256,0,0,0,.569-.117,1.061,1.061,0,0,0,.385-.321,1.319,1.319,0,0,0,.22-.492,2.728,2.728,0,0,0,.068-.634v-.273h-.016a1.14,1.14,0,0,1-.534.565,1.636,1.636,0,0,1-.757.181,1.84,1.84,0,0,1-.81-.167,1.705,1.705,0,0,1-.578-.454,1.937,1.937,0,0,1-.349-.665,2.739,2.739,0,0,1-.117-.807,3.149,3.149,0,0,1,.1-.757,2.056,2.056,0,0,1,.321-.706,1.746,1.746,0,0,1,.593-.521,1.842,1.842,0,0,1,.906-.206,1.526,1.526,0,0,1,.722.173,1.216,1.216,0,0,1,.514.517h.007v-.593h.642v3.793A2.186,2.186,0,0,1,702.171,3663.86ZM701.3,3662a1.126,1.126,0,0,0,.381-.369,1.7,1.7,0,0,0,.212-.517,2.536,2.536,0,0,0,.068-.578,2.253,2.253,0,0,0-.064-.537,1.5,1.5,0,0,0-.2-.477,1.064,1.064,0,0,0-.365-.341,1.088,1.088,0,0,0-.546-.128,1.176,1.176,0,0,0-.561.124,1.117,1.117,0,0,0-.381.333,1.412,1.412,0,0,0-.215.481,2.3,2.3,0,0,0-.068.569,2.9,2.9,0,0,0,.056.561,1.613,1.613,0,0,0,.192.51,1.085,1.085,0,0,0,.361.369,1.04,1.04,0,0,0,.561.141A1.107,1.107,0,0,0,701.3,3662Z" transform="translate(-670.359 -3656.964)" fill="#191919"/>
          <path id="Path_1277" data-name="Path 1277" d="M708.089,3657.037l2.238,5.726h-.841l-.626-1.725h-2.421l-.642,1.725h-.778l2.23-5.726Zm.53,3.36-.954-2.672h-.016l-.971,2.672Z" transform="translate(-670.046 -3657.037)" fill="#191919"/>
          <path id="Path_1278" data-name="Path 1278" d="M711.219,3657.037v5.726h-.682v-5.726Z" transform="translate(-669.768 -3657.037)" fill="#191919"/>
          <path id="Path_1279" data-name="Path 1279" d="M714.984,3662.686v-.657h-.016a1.394,1.394,0,0,1-.554.565,1.664,1.664,0,0,1-.794.181,1.881,1.881,0,0,1-.682-.108,1.1,1.1,0,0,1-.441-.31,1.167,1.167,0,0,1-.235-.478,2.522,2.522,0,0,1-.068-.613v-2.727h.682v2.807a.823.823,0,0,0,.224.609.832.832,0,0,0,.618.225,1.383,1.383,0,0,0,.541-.1,1.019,1.019,0,0,0,.381-.271,1.186,1.186,0,0,0,.229-.414,1.686,1.686,0,0,0,.076-.517v-2.342h.682v4.146Z" transform="translate(-669.684 -3656.96)" fill="#191919"/>
          <path id="Path_1280" data-name="Path 1280" d="M717.08,3658.544v.609h.016a1.613,1.613,0,0,1,2.037-.545.9.9,0,0,1,.441.545,1.447,1.447,0,0,1,.549-.521,1.559,1.559,0,0,1,.75-.185,2.171,2.171,0,0,1,.565.069,1.177,1.177,0,0,1,.433.212.946.946,0,0,1,.28.374,1.356,1.356,0,0,1,.1.548v3.041h-.682v-2.719a1.964,1.964,0,0,0-.032-.361.748.748,0,0,0-.121-.292.6.6,0,0,0-.245-.2.961.961,0,0,0-.406-.072,1.07,1.07,0,0,0-.793.288,1.037,1.037,0,0,0-.289.77v2.583H719v-2.719a1.768,1.768,0,0,0-.036-.369.773.773,0,0,0-.125-.292.575.575,0,0,0-.236-.192.925.925,0,0,0-.381-.068,1.019,1.019,0,0,0-.508.119,1.188,1.188,0,0,0-.346.289,1.161,1.161,0,0,0-.192.35,1,1,0,0,0-.06.3v2.583h-.682v-4.146Z" transform="translate(-669.47 -3656.964)" fill="#191919"/>
          <path id="Path_1281" data-name="Path 1281" d="M723.592,3658.544v.657h.016a1.437,1.437,0,0,1,1.347-.754,1.81,1.81,0,0,1,.682.112,1.1,1.1,0,0,1,.678.79,2.585,2.585,0,0,1,.068.614v2.727H725.7v-2.807a.821.821,0,0,0-.224-.609.834.834,0,0,0-.618-.225,1.417,1.417,0,0,0-.542.1,1.027,1.027,0,0,0-.38.273,1.181,1.181,0,0,0-.229.412,1.7,1.7,0,0,0-.076.519v2.341h-.682v-4.146Z" transform="translate(-669.141 -3656.964)" fill="#191919"/>
          <path id="Path_1282" data-name="Path 1282" d="M727.233,3657.871v-.834h.681v.834Zm.681.746v4.146h-.681v-4.146Z" transform="translate(-668.925 -3657.037)" fill="#191919"/>
          <path id="Path_1283" data-name="Path 1283" d="M733.812,3657.037a1.884,1.884,0,0,1,1.279.4,1.376,1.376,0,0,1,.461,1.1,1.736,1.736,0,0,1-.236.914,1.219,1.219,0,0,1-.757.537V3660a1.017,1.017,0,0,1,.4.16.886.886,0,0,1,.248.269,1.2,1.2,0,0,1,.137.349,3.681,3.681,0,0,1,.068.4c.012.139.019.281.024.426a3.757,3.757,0,0,0,.04.424,2.762,2.762,0,0,0,.092.4.977.977,0,0,0,.181.333h-.85a.488.488,0,0,1-.109-.24,2.6,2.6,0,0,1-.036-.342c-.005-.125-.011-.26-.016-.4a2.725,2.725,0,0,0-.048-.426,3.975,3.975,0,0,0-.08-.4.953.953,0,0,0-.152-.329.752.752,0,0,0-.273-.224,1,1,0,0,0-.448-.085h-1.86v2.446h-.762v-5.726Zm.161,2.6a1.155,1.155,0,0,0,.421-.157.846.846,0,0,0,.288-.313,1.047,1.047,0,0,0,.109-.51,1.031,1.031,0,0,0-.241-.706.992.992,0,0,0-.778-.272h-1.892v2h1.587A3.229,3.229,0,0,0,733.973,3659.636Z" transform="translate(-668.729 -3657.037)" fill="#191919"/>
          <path id="Path_1284" data-name="Path 1284" d="M739.186,3662.426a1.882,1.882,0,0,1-1.17.353,2.131,2.131,0,0,1-.862-.161,1.7,1.7,0,0,1-.613-.45,1.9,1.9,0,0,1-.373-.689,3.352,3.352,0,0,1-.141-.874,2.486,2.486,0,0,1,.145-.866,2.08,2.08,0,0,1,.4-.681,1.843,1.843,0,0,1,.618-.449,1.889,1.889,0,0,1,.782-.161,1.7,1.7,0,0,1,.919.23,1.809,1.809,0,0,1,.585.581,2.3,2.3,0,0,1,.3.77,3.31,3.31,0,0,1,.068.794h-3.1a1.63,1.63,0,0,0,.064.516,1.175,1.175,0,0,0,.232.435,1.158,1.158,0,0,0,.41.3,1.409,1.409,0,0,0,.585.113,1.179,1.179,0,0,0,.709-.2.972.972,0,0,0,.366-.609h.673A1.657,1.657,0,0,1,739.186,3662.426Zm-.164-2.663a1.179,1.179,0,0,0-.249-.373,1.169,1.169,0,0,0-.837-.34,1.173,1.173,0,0,0-.477.092,1.064,1.064,0,0,0-.366.252,1.212,1.212,0,0,0-.241.373,1.425,1.425,0,0,0-.1.454h2.381A1.412,1.412,0,0,0,739.022,3659.763Z" transform="translate(-668.481 -3656.964)" fill="#191919"/>
          <path id="Path_1285" data-name="Path 1285" d="M741.06,3657.037v5.726h-.682v-5.726Z" transform="translate(-668.261 -3657.037)" fill="#191919"/>
          <path id="Path_1286" data-name="Path 1286" d="M745.718,3662.674a.956.956,0,0,1-.49.1.585.585,0,0,1-.42-.149.646.646,0,0,1-.157-.485,1.639,1.639,0,0,1-.653.485,2.16,2.16,0,0,1-.806.149,2.216,2.216,0,0,1-.534-.064,1.275,1.275,0,0,1-.437-.2.974.974,0,0,1-.293-.357,1.2,1.2,0,0,1-.108-.533,1.214,1.214,0,0,1,.12-.577,1.058,1.058,0,0,1,.317-.366,1.449,1.449,0,0,1,.45-.212,5.061,5.061,0,0,1,.517-.12q.281-.057.533-.085a2.869,2.869,0,0,0,.446-.08.754.754,0,0,0,.3-.152.377.377,0,0,0,.112-.293.674.674,0,0,0-.085-.36.571.571,0,0,0-.216-.209.91.91,0,0,0-.3-.1,2.312,2.312,0,0,0-.325-.023,1.45,1.45,0,0,0-.723.164.7.7,0,0,0-.312.622h-.682a1.466,1.466,0,0,1,.161-.649,1.211,1.211,0,0,1,.384-.43,1.635,1.635,0,0,1,.549-.236,2.884,2.884,0,0,1,.662-.073,3.921,3.921,0,0,1,.557.04,1.449,1.449,0,0,1,.5.166.947.947,0,0,1,.361.348,1.115,1.115,0,0,1,.136.584v2.127a1.643,1.643,0,0,0,.028.353q.029.112.189.112a.821.821,0,0,0,.208-.032Zm-1.106-2.125a.83.83,0,0,1-.337.139c-.138.03-.285.055-.437.073s-.306.04-.461.063a1.708,1.708,0,0,0-.417.116.755.755,0,0,0-.3.228.631.631,0,0,0-.117.4.542.542,0,0,0,.068.283.561.561,0,0,0,.177.188.725.725,0,0,0,.252.1,1.4,1.4,0,0,0,.3.032,1.638,1.638,0,0,0,.578-.091,1.2,1.2,0,0,0,.393-.232.9.9,0,0,0,.225-.3.759.759,0,0,0,.073-.308Z" transform="translate(-668.188 -3656.964)" fill="#191919"/>
          <path id="Path_1287" data-name="Path 1287" d="M747.927,3658.6v.6H747.1v2.575a.777.777,0,0,0,.02.193.194.194,0,0,0,.077.112.335.335,0,0,0,.157.053,2.43,2.43,0,0,0,.261.012h.312v.6h-.521a2.446,2.446,0,0,1-.453-.037.675.675,0,0,1-.3-.131.574.574,0,0,1-.173-.273,1.594,1.594,0,0,1-.056-.465V3659.2h-.706v-.6h.706v-1.243h.682v1.243Z" transform="translate(-667.992 -3657.019)" fill="#191919"/>
          <path id="Path_1288" data-name="Path 1288" d="M748.577,3657.871v-.834h.681v.834Zm.681.746v4.146h-.681v-4.146Z" transform="translate(-667.847 -3657.037)" fill="#191919"/>
          <path id="Path_1289" data-name="Path 1289" d="M750.147,3659.767a1.94,1.94,0,0,1,.386-.689,1.815,1.815,0,0,1,.633-.461,2.315,2.315,0,0,1,1.736,0,1.826,1.826,0,0,1,.629.461,1.92,1.92,0,0,1,.385.689,2.748,2.748,0,0,1,.128.854,2.7,2.7,0,0,1-.128.85,1.924,1.924,0,0,1-.385.686,1.772,1.772,0,0,1-.629.457,2.366,2.366,0,0,1-1.736,0,1.762,1.762,0,0,1-.633-.457,1.944,1.944,0,0,1-.386-.686,2.735,2.735,0,0,1-.128-.85A2.782,2.782,0,0,1,750.147,3659.767Zm.694,1.524a1.376,1.376,0,0,0,.276.489,1.193,1.193,0,0,0,.413.3,1.243,1.243,0,0,0,1,0,1.192,1.192,0,0,0,.413-.3,1.394,1.394,0,0,0,.277-.489,2.273,2.273,0,0,0,0-1.339,1.457,1.457,0,0,0-.277-.494,1.191,1.191,0,0,0-.413-.3,1.264,1.264,0,0,0-1,0,1.192,1.192,0,0,0-.413.3,1.437,1.437,0,0,0-.276.494,2.272,2.272,0,0,0,0,1.339Z" transform="translate(-667.775 -3656.964)" fill="#191919"/>
          <path id="Path_1290" data-name="Path 1290" d="M755.257,3658.544v.657h.016a1.437,1.437,0,0,1,1.348-.754,1.809,1.809,0,0,1,.681.112,1.146,1.146,0,0,1,.442.313,1.16,1.16,0,0,1,.235.477,2.527,2.527,0,0,1,.068.614v2.727h-.682v-2.807a.822.822,0,0,0-.224-.609.834.834,0,0,0-.618-.225,1.408,1.408,0,0,0-.541.1,1.02,1.02,0,0,0-.381.273,1.185,1.185,0,0,0-.229.412,1.7,1.7,0,0,0-.076.519v2.341h-.682v-4.146Z" transform="translate(-667.542 -3656.964)" fill="#191919"/>
          <path id="Path_1291" data-name="Path 1291" d="M759.394,3661.764a.735.735,0,0,0,.252.25,1.184,1.184,0,0,0,.353.132,2.015,2.015,0,0,0,.406.041,2.491,2.491,0,0,0,.336-.025,1.193,1.193,0,0,0,.325-.088.6.6,0,0,0,.245-.189.492.492,0,0,0,.1-.316.456.456,0,0,0-.2-.4,1.74,1.74,0,0,0-.5-.22q-.3-.083-.653-.153a3.328,3.328,0,0,1-.653-.192,1.354,1.354,0,0,1-.5-.349.9.9,0,0,1-.2-.626.994.994,0,0,1,.14-.537,1.152,1.152,0,0,1,.361-.365,1.681,1.681,0,0,1,.5-.208,2.3,2.3,0,0,1,.549-.069,3.233,3.233,0,0,1,.649.061,1.524,1.524,0,0,1,.526.208,1.085,1.085,0,0,1,.364.4,1.54,1.54,0,0,1,.161.629h-.682a.705.705,0,0,0-.105-.333.693.693,0,0,0-.224-.212,1.036,1.036,0,0,0-.3-.117,1.554,1.554,0,0,0-.333-.035,2.072,2.072,0,0,0-.308.023,1.034,1.034,0,0,0-.286.085.568.568,0,0,0-.208.16.405.405,0,0,0-.08.261.377.377,0,0,0,.124.291.976.976,0,0,0,.317.194,2.8,2.8,0,0,0,.433.128c.161.035.32.07.481.108a5.06,5.06,0,0,1,.5.137,1.641,1.641,0,0,1,.433.212,1.047,1.047,0,0,1,.306.333.984.984,0,0,1,.116.5,1.156,1.156,0,0,1-.157.625,1.221,1.221,0,0,1-.409.4,1.706,1.706,0,0,1-.569.212,3.3,3.3,0,0,1-.629.061,2.915,2.915,0,0,1-.659-.073,1.615,1.615,0,0,1-.553-.236,1.2,1.2,0,0,1-.385-.433,1.523,1.523,0,0,1-.161-.654h.683A.751.751,0,0,0,759.394,3661.764Z" transform="translate(-667.341 -3656.964)" fill="#191919"/>
          <path id="Path_1292" data-name="Path 1292" d="M763.359,3657.037v2.189h.016a.909.909,0,0,1,.225-.325,1.252,1.252,0,0,1,.325-.217,1.7,1.7,0,0,1,.377-.125,1.918,1.918,0,0,1,.38-.04,1.8,1.8,0,0,1,.682.112,1.14,1.14,0,0,1,.441.313,1.163,1.163,0,0,1,.236.477,2.586,2.586,0,0,1,.068.614v2.727h-.682v-2.806a.822.822,0,0,0-.224-.609.834.834,0,0,0-.618-.225,1.422,1.422,0,0,0-.542.1,1.022,1.022,0,0,0-.38.273,1.169,1.169,0,0,0-.229.412,1.7,1.7,0,0,0-.076.518v2.341h-.682v-5.726Z" transform="translate(-667.136 -3657.037)" fill="#191919"/>
          <path id="Path_1293" data-name="Path 1293" d="M766.96,3657.871v-.834h.681v.834Zm.681.746v4.146h-.681v-4.146Z" transform="translate(-666.919 -3657.037)" fill="#191919"/>
          <path id="Path_1294" data-name="Path 1294" d="M769.321,3658.544v.561h.016a1.025,1.025,0,0,1,.529-.5,1.977,1.977,0,0,1,.794-.157,1.866,1.866,0,0,1,.837.177,1.7,1.7,0,0,1,.593.478,2.107,2.107,0,0,1,.357.694,2.84,2.84,0,0,1,.12.834,2.956,2.956,0,0,1-.116.834,1.966,1.966,0,0,1-.353.685,1.649,1.649,0,0,1-.594.461,1.919,1.919,0,0,1-.83.169,2.053,2.053,0,0,1-.341-.033,1.878,1.878,0,0,1-.373-.1,1.461,1.461,0,0,1-.349-.2,1.107,1.107,0,0,1-.276-.308h-.016v2.133h-.682v-5.726Zm2.45,1.471a1.531,1.531,0,0,0-.233-.494,1.145,1.145,0,0,0-.4-.344,1.224,1.224,0,0,0-.574-.128,1.128,1.128,0,0,0-.978.492,1.506,1.506,0,0,0-.221.5,2.412,2.412,0,0,0-.067.568,2.444,2.444,0,0,0,.071.591,1.484,1.484,0,0,0,.229.5,1.179,1.179,0,0,0,.4.348,1.266,1.266,0,0,0,.6.133,1.171,1.171,0,0,0,.589-.137,1.093,1.093,0,0,0,.381-.362,1.558,1.558,0,0,0,.209-.512,2.785,2.785,0,0,0,.063-.593A2.134,2.134,0,0,0,771.771,3660.016Z" transform="translate(-666.835 -3656.964)" fill="#191919"/>
          <path id="Path_1295" data-name="Path 1295" d="M773.677,3661.764a.735.735,0,0,0,.252.25,1.183,1.183,0,0,0,.353.132,2.015,2.015,0,0,0,.406.041,2.491,2.491,0,0,0,.336-.025,1.191,1.191,0,0,0,.325-.088.6.6,0,0,0,.245-.189.493.493,0,0,0,.1-.316.457.457,0,0,0-.2-.4,1.744,1.744,0,0,0-.5-.22q-.3-.083-.653-.153a3.328,3.328,0,0,1-.653-.192,1.355,1.355,0,0,1-.5-.349.9.9,0,0,1-.2-.626,1,1,0,0,1,.141-.537,1.153,1.153,0,0,1,.362-.365,1.68,1.68,0,0,1,.5-.208,2.3,2.3,0,0,1,.549-.069,3.231,3.231,0,0,1,.649.061,1.522,1.522,0,0,1,.526.208,1.087,1.087,0,0,1,.365.4,1.537,1.537,0,0,1,.161.629h-.682a.707.707,0,0,0-.1-.333.7.7,0,0,0-.224-.212,1.037,1.037,0,0,0-.3-.117,1.553,1.553,0,0,0-.333-.035,2.073,2.073,0,0,0-.308.023,1.034,1.034,0,0,0-.286.085.568.568,0,0,0-.208.16.406.406,0,0,0-.08.261.377.377,0,0,0,.124.291.977.977,0,0,0,.317.194,2.805,2.805,0,0,0,.433.128c.161.035.321.07.481.108a5.066,5.066,0,0,1,.5.137,1.645,1.645,0,0,1,.433.212,1.047,1.047,0,0,1,.306.333.983.983,0,0,1,.116.5,1.155,1.155,0,0,1-.157.625,1.218,1.218,0,0,1-.409.4,1.7,1.7,0,0,1-.569.212,3.3,3.3,0,0,1-.629.061,2.915,2.915,0,0,1-.659-.073,1.617,1.617,0,0,1-.553-.236,1.2,1.2,0,0,1-.385-.433,1.521,1.521,0,0,1-.161-.654h.683A.751.751,0,0,0,773.677,3661.764Z" transform="translate(-666.62 -3656.964)" fill="#191919"/>
        </g>
        <g id="Group_342" data-name="Group 342">
          <g id="Group_337" data-name="Group 337">
            <path id="Path_1296" data-name="Path 1296" d="M690.551,3628.3l-9.973,23.168L670.045,3628.3H665.1c3.312,7.149,10.931,23.828,11.169,24.347a4.751,4.751,0,0,0,8.519-.374l4.036-9.215c-.04-.441-.062-.879-.062-1.329a14.236,14.236,0,0,1,.63-4.2,1.017,1.017,0,0,1-.338-.758,1.028,1.028,0,0,1,1.024-1.028,14.863,14.863,0,0,1,4.3-5.495l.8-1.952Z" transform="translate(-665.104 -3628.301)" fill="#191919"/>
          </g>
          <g id="Group_338" data-name="Group 338" transform="translate(24.693 0.11)">
            <path id="Path_1297" data-name="Path 1297" d="M713.143,3644.3a1.174,1.174,0,0,1-.93-1.176,1.215,1.215,0,0,1,.758-1.109c0-.093,0-.187,0-.281a14.234,14.234,0,0,1,1.122-5.544,13.352,13.352,0,0,0-24.3.071,1.028,1.028,0,0,1-.574,1.492,13.342,13.342,0,0,0,12.733,17.329,13.033,13.033,0,0,0,6.116-1.509v-5.2a9.389,9.389,0,0,1-6.185,2.432,9.1,9.1,0,0,1,.021-18.193,8.925,8.925,0,0,1,6.429,2.754,9.052,9.052,0,0,1,2.662,6.419c0,.05.026,8.713.041,12.476h4.3l-.117-4.282v-.266A22.631,22.631,0,0,1,713.143,3644.3Z" transform="translate(-688.61 -3628.405)" fill="#191919"/>
          </g>
          <g id="Group_339" data-name="Group 339" transform="translate(50.093 0.11)">
            <path id="Path_1298" data-name="Path 1298" d="M738.669,3637.113h-.014a1.2,1.2,0,0,1-.918-1.973,13.35,13.35,0,0,0-24.947,6.59c0,.113.005.224.008.336a1.2,1.2,0,0,1,.186,1.982,13.125,13.125,0,0,0,13.053,11.03,12.662,12.662,0,0,0,6.021-1.509v-5.2a8.48,8.48,0,0,1-6.09,2.432,9.1,9.1,0,0,1,.091-18.193,8.951,8.951,0,0,1,6.44,2.754,9.059,9.059,0,0,1,2.668,6.419c0,.05.033,8.713.046,12.476h4.3l.005-4.261c0-3.82.01-8.062.01-8.185A13.189,13.189,0,0,0,738.669,3637.113Z" transform="translate(-712.79 -3628.405)" fill="#191919"/>
          </g>
          <g id="Group_340" data-name="Group 340" transform="translate(71.398)">
            <path id="Path_1299" data-name="Path 1299" d="M758.518,3628.3l-9.974,23.168L738.012,3628.3h-4.941a21.256,21.256,0,0,0,.873,2,14.844,14.844,0,0,1,3.711,4.361,1.232,1.232,0,0,1,.917,1.989,14.489,14.489,0,0,1,.963,5.211v.67c2.467,5.36,4.58,9.966,4.7,10.235a4.56,4.56,0,0,0,4.164,2.412,4.646,4.646,0,0,0,4.355-2.875l3.53-8.072a14.837,14.837,0,0,1-.217-2.505,14.214,14.214,0,0,1,.731-4.51,1.2,1.2,0,0,1,.834-1.979,14.81,14.81,0,0,1,5-5.644l.513-1.291Z" transform="translate(-733.071 -3628.301)" fill="#191919"/>
          </g>
          <g id="Group_341" data-name="Group 341" transform="translate(95.428 0.12)">
            <path id="Path_1300" data-name="Path 1300" d="M763.92,3642.037a7.146,7.146,0,0,0,.605,2.438h17.958a20.573,20.573,0,0,0,.2-2.556,13.378,13.378,0,0,0-25.244-6.3,1.2,1.2,0,0,1-.846,2.01,13.184,13.184,0,0,0-.65,4.092,13.51,13.51,0,0,0,13.37,13.616h.1l.078,0,.087,0h.076a13.376,13.376,0,0,0,12.29-8.316,8.231,8.231,0,0,1-2.264.308,8.1,8.1,0,0,1-2.437-.36,9.238,9.238,0,0,1-2.339,2.357l-.133.042h-.044a11.58,11.58,0,0,1-5.233,1.5h-.023a11.581,11.581,0,0,1-5.232-1.5H764.2l-.135-.042a9.266,9.266,0,0,1-3.915-7.543,8.887,8.887,0,0,1,9.1-8.873,9.11,9.11,0,0,1,8.693,6.5l.2.547H764.225A8.119,8.119,0,0,0,763.92,3642.037Z" transform="translate(-755.946 -3628.414)" fill="#191919"/>
          </g>
        </g>
      </g>
    </g>
    <text id="Powered_by" data-name="Powered by" transform="translate(632 3860.53)" fill="#191919" font-size="11" font-family="Nunito, sans-serif"><tspan x="0" y="0">Powered by</tspan></text>
  </g>
</svg>
